<mxfile host="65bd71144e">
    <diagram id="4UdUqQnEyKSGIjsAtdWJ" name="Page-1">
        <mxGraphModel dx="776" dy="1729" grid="1" gridSize="10" guides="1" tooltips="1" connect="1" arrows="1" fold="1" page="1" pageScale="1" pageWidth="850" pageHeight="1100" math="0" shadow="0">
            <root>
                <mxCell id="0"/>
                <mxCell id="1" parent="0"/>
                <mxCell id="8" value="x1" style="rounded=0;whiteSpace=wrap;html=1;fontSize=24;fillColor=#6a00ff;strokeColor=#3700CC;fontColor=#ffffff;" vertex="1" parent="1">
                    <mxGeometry x="90" y="70" width="40" height="60" as="geometry"/>
                </mxCell>
                <mxCell id="9" value="x2" style="rounded=0;whiteSpace=wrap;html=1;fontSize=24;fillColor=#6a00ff;strokeColor=#3700CC;fontColor=#ffffff;" vertex="1" parent="1">
                    <mxGeometry x="130" y="70" width="40" height="60" as="geometry"/>
                </mxCell>
                <mxCell id="10" value="x3" style="rounded=0;whiteSpace=wrap;html=1;fontSize=24;fillColor=#6a00ff;strokeColor=#3700CC;fontColor=#ffffff;" vertex="1" parent="1">
                    <mxGeometry x="170" y="70" width="40" height="60" as="geometry"/>
                </mxCell>
                <mxCell id="11" value="..." style="text;html=1;strokeColor=none;fillColor=none;align=center;verticalAlign=middle;whiteSpace=wrap;rounded=0;fontSize=35;" vertex="1" parent="1">
                    <mxGeometry x="210" y="80" width="40" height="30" as="geometry"/>
                </mxCell>
                <mxCell id="12" value="x&lt;br&gt;n-1" style="rounded=0;whiteSpace=wrap;html=1;fontSize=24;fillColor=#6a00ff;strokeColor=#3700CC;fontColor=#ffffff;" vertex="1" parent="1">
                    <mxGeometry x="290" y="70" width="40" height="60" as="geometry"/>
                </mxCell>
                <mxCell id="13" value="xn" style="rounded=0;whiteSpace=wrap;html=1;fontSize=24;fillColor=#6a00ff;strokeColor=#3700CC;fontColor=#ffffff;" vertex="1" parent="1">
                    <mxGeometry x="330" y="70" width="40" height="60" as="geometry"/>
                </mxCell>
                <mxCell id="14" value="List:" style="text;html=1;strokeColor=none;fillColor=none;align=center;verticalAlign=middle;whiteSpace=wrap;rounded=0;fontSize=35;" vertex="1" parent="1">
                    <mxGeometry x="10" y="90" width="70" height="20" as="geometry"/>
                </mxCell>
                <mxCell id="33" value="x&lt;br&gt;n-2" style="rounded=0;whiteSpace=wrap;html=1;fontSize=24;fillColor=#6a00ff;strokeColor=#3700CC;fontColor=#ffffff;" vertex="1" parent="1">
                    <mxGeometry x="250" y="70" width="40" height="60" as="geometry"/>
                </mxCell>
                <mxCell id="34" value="x1" style="rounded=0;whiteSpace=wrap;html=1;fontSize=24;fillColor=#6a00ff;strokeColor=#3700CC;fontColor=#ffffff;" vertex="1" parent="1">
                    <mxGeometry x="540" y="30" width="40" height="60" as="geometry"/>
                </mxCell>
                <mxCell id="35" value="x2" style="rounded=0;whiteSpace=wrap;html=1;fontSize=24;fillColor=#6a00ff;strokeColor=#3700CC;fontColor=#ffffff;" vertex="1" parent="1">
                    <mxGeometry x="580" y="30" width="40" height="60" as="geometry"/>
                </mxCell>
                <mxCell id="36" value="x3" style="rounded=0;whiteSpace=wrap;html=1;fontSize=24;fillColor=#6a00ff;strokeColor=#3700CC;fontColor=#ffffff;" vertex="1" parent="1">
                    <mxGeometry x="620" y="30" width="40" height="60" as="geometry"/>
                </mxCell>
                <mxCell id="37" value="..." style="text;html=1;strokeColor=none;fillColor=none;align=center;verticalAlign=middle;whiteSpace=wrap;rounded=0;fontSize=35;" vertex="1" parent="1">
                    <mxGeometry x="660" y="40" width="40" height="30" as="geometry"/>
                </mxCell>
                <mxCell id="38" value="x&lt;br&gt;n-1" style="rounded=0;whiteSpace=wrap;html=1;fontSize=24;fillColor=#6a00ff;strokeColor=#3700CC;fontColor=#ffffff;" vertex="1" parent="1">
                    <mxGeometry x="580" y="110" width="40" height="60" as="geometry"/>
                </mxCell>
                <mxCell id="39" value="xn" style="rounded=0;whiteSpace=wrap;html=1;fontSize=24;fillColor=#6a00ff;strokeColor=#3700CC;fontColor=#ffffff;" vertex="1" parent="1">
                    <mxGeometry x="540" y="110" width="40" height="60" as="geometry"/>
                </mxCell>
                <mxCell id="40" value="x&lt;br&gt;n-2" style="rounded=0;whiteSpace=wrap;html=1;fontSize=24;fillColor=#6a00ff;strokeColor=#3700CC;fontColor=#ffffff;" vertex="1" parent="1">
                    <mxGeometry x="620" y="110" width="40" height="60" as="geometry"/>
                </mxCell>
                <mxCell id="41" value="..." style="text;html=1;strokeColor=none;fillColor=none;align=center;verticalAlign=middle;whiteSpace=wrap;rounded=0;fontSize=35;" vertex="1" parent="1">
                    <mxGeometry x="660" y="120" width="40" height="35" as="geometry"/>
                </mxCell>
                <mxCell id="42" value="DQ:" style="text;html=1;strokeColor=none;fillColor=none;align=center;verticalAlign=middle;whiteSpace=wrap;rounded=0;fontSize=35;" vertex="1" parent="1">
                    <mxGeometry x="460" y="90" width="70" height="20" as="geometry"/>
                </mxCell>
                <mxCell id="45" value="" style="endArrow=open;html=1;fontSize=35;endFill=0;endSize=16;entryX=0;entryY=0.75;entryDx=0;entryDy=0;exitX=1;exitY=0.5;exitDx=0;exitDy=0;" edge="1" parent="1" source="48" target="39">
                    <mxGeometry width="50" height="50" relative="1" as="geometry">
                        <mxPoint x="560" y="220" as="sourcePoint"/>
                        <mxPoint x="560" y="170" as="targetPoint"/>
                    </mxGeometry>
                </mxCell>
                <mxCell id="46" value="" style="endArrow=open;html=1;fontSize=35;endFill=0;endSize=16;entryX=0;entryY=0.25;entryDx=0;entryDy=0;exitX=1;exitY=0.5;exitDx=0;exitDy=0;" edge="1" parent="1" source="47" target="34">
                    <mxGeometry width="50" height="50" relative="1" as="geometry">
                        <mxPoint x="560" y="-20" as="sourcePoint"/>
                        <mxPoint x="590" as="targetPoint"/>
                    </mxGeometry>
                </mxCell>
                <mxCell id="47" value="head" style="text;html=1;strokeColor=none;fillColor=none;align=center;verticalAlign=middle;whiteSpace=wrap;rounded=0;fontSize=14;" vertex="1" parent="1">
                    <mxGeometry x="460" y="30" width="40" height="30" as="geometry"/>
                </mxCell>
                <mxCell id="48" value="last" style="text;html=1;strokeColor=none;fillColor=none;align=center;verticalAlign=middle;whiteSpace=wrap;rounded=0;fontSize=14;" vertex="1" parent="1">
                    <mxGeometry x="460" y="140" width="40" height="30" as="geometry"/>
                </mxCell>
                <mxCell id="50" value="head" style="text;html=1;strokeColor=none;fillColor=none;align=center;verticalAlign=middle;whiteSpace=wrap;rounded=0;fontSize=14;" vertex="1" parent="1">
                    <mxGeometry x="90" y="20" width="40" height="20" as="geometry"/>
                </mxCell>
                <mxCell id="51" value="last" style="text;html=1;strokeColor=none;fillColor=none;align=center;verticalAlign=middle;whiteSpace=wrap;rounded=0;fontSize=14;" vertex="1" parent="1">
                    <mxGeometry x="330" y="20" width="40" height="20" as="geometry"/>
                </mxCell>
                <mxCell id="52" value="" style="endArrow=open;html=1;fontSize=35;endFill=0;endSize=16;entryX=0.5;entryY=0;entryDx=0;entryDy=0;exitX=0.5;exitY=1;exitDx=0;exitDy=0;" edge="1" parent="1" source="51" target="13">
                    <mxGeometry width="50" height="50" relative="1" as="geometry">
                        <mxPoint x="360" y="49.99999999999977" as="sourcePoint"/>
                        <mxPoint x="400" y="49.99999999999977" as="targetPoint"/>
                    </mxGeometry>
                </mxCell>
                <mxCell id="53" value="" style="endArrow=open;html=1;fontSize=35;endFill=0;endSize=16;entryX=0.5;entryY=0;entryDx=0;entryDy=0;exitX=0.5;exitY=1;exitDx=0;exitDy=0;" edge="1" parent="1" source="50" target="8">
                    <mxGeometry width="50" height="50" relative="1" as="geometry">
                        <mxPoint x="360" y="50" as="sourcePoint"/>
                        <mxPoint x="360" y="80" as="targetPoint"/>
                    </mxGeometry>
                </mxCell>
            </root>
        </mxGraphModel>
    </diagram>
</mxfile>